<svg id="Capa_1" enable-background="new 0 0 512.017 512.017" height="512" viewBox="0 0 512.017 512.017" width="512" xmlns="http://www.w3.org/2000/svg"><g><path d="m292.688 208.489 45 30c6.862 4.576 16.186 2.763 20.801-4.16 4.595-6.893 2.732-16.206-4.161-20.801l-26.279-17.519 26.279-17.519c6.893-4.595 8.756-13.908 4.161-20.801s-13.909-8.756-20.801-4.16l-45 30c-4.173 2.782-6.68 7.465-6.68 12.481s2.507 9.697 6.68 12.479z"/><path d="m153.527 234.329c4.61 6.915 13.929 8.742 20.801 4.16l45-30c4.173-2.782 6.68-7.465 6.68-12.481s-2.506-9.699-6.68-12.481l-45-30c-6.891-4.595-16.205-2.733-20.801 4.16-4.595 6.893-2.732 16.206 4.161 20.801l26.279 17.519-26.279 17.519c-6.893 4.597-8.756 13.91-4.161 20.803z"/><path d="m482 203.582c-1.653-.585-3.742-1.171-6.566-1.583-24.711-99.414-115.325-170.99-219.425-170.99-104.084 0-194.71 71.559-219.425 170.991-2.824.412-4.913.999-6.566 1.583-23.448 8.288-35.719 33.975-27.428 57.425 4.978 14.081 16.217 24.224 29.883 28.221 16.262 108.933 111.239 191.779 223.535 191.779 112.361 0 207.282-82.905 223.535-191.779 13.664-3.997 24.904-14.139 29.883-28.221 8.291-23.447-3.976-49.136-27.426-57.426zm-441.999 28.29c3.502-1.134 7.174-.156 9.789-.341 6.664.465 15.731 1.793 25.58 3.746-10.844 12.997-21.083 23.234-25.353 24.873-7.74 2.738-16.356-1.262-19.142-9.142-2.782-7.868 1.385-16.399 9.126-19.136zm216.007 219.136c-95.679 0-178.219-70.873-193.455-163.598 6.101-2.773 15.91-9.502 33.026-29.606 9.958-11.697 17.827-22.545 18.157-23.001 2.889-3.992 3.633-9.148 1.991-13.794s-5.462-8.189-10.219-9.478c-.543-.147-13.481-3.639-28.579-6.477-3.487-.656-6.71-1.202-9.71-1.66 23.364-83.414 100.279-142.386 188.789-142.386s165.425 58.971 188.788 142.385c-3 .458-6.222 1.005-9.71 1.66-15.097 2.838-28.036 6.33-28.579 6.477-4.756 1.289-8.576 4.832-10.219 9.478s-.898 9.802 1.991 13.794c.33.456 8.198 11.304 18.157 23.001 17.116 20.104 26.925 26.833 33.026 29.606-15.234 92.727-97.774 163.599-193.454 163.599zm225.134-199.999c-2.795 7.904-11.433 11.868-19.125 9.148-4.283-1.644-14.527-11.884-25.374-24.884 9.777-1.94 18.789-3.265 25.438-3.739 2.83.228 6.515-.768 9.919.333 7.817 2.763 11.906 11.324 9.142 19.142z"/><path d="m394.458 301.008h-276.908c-5.063 0-9.786 2.555-12.556 6.793-2.77 4.239-3.215 9.589-1.183 14.227 25.583 58.383 84.812 98.98 152.197 98.98 70.71 0 128.661-45.288 152.188-98.98 2.032-4.638 1.587-9.988-1.183-14.227-2.77-4.238-7.492-6.793-12.555-6.793zm-138.45 90c-46.026 0-88.274-22.939-113.175-60.01h226.083c-24.62 35.506-65.53 60.01-112.908 60.01z"/></g></svg>